<svg id="Capa_1" enable-background="new 0 0 512 512" height="512" viewBox="0 0 512 512" width="512" xmlns="http://www.w3.org/2000/svg"><g><g><path d="m447.79 120.95 54.21 72.05h-90.64l-52.34 73.45c-.629-2.025 4.555 14.658-26.9-86.57-.125-.039-86.449-26.862-86.57-26.9l73.45-52.34v-90.64l72.05 54.21 85.85-29.11z" fill="#ffda8f"/><circle cx="472" cy="310" fill="#ffda8f" r="30"/><path d="m332.12 179.88 10.06 32.37-204.9 204.9-42.43-42.43 204.9-204.9z" fill="#ff7b79"/><circle cx="142" cy="190" fill="#ffda8f" r="30"/><path d="m13.642 408.357h119.996v60.005h-119.996z" fill="#8690af" transform="matrix(.707 -.707 .707 .707 -288.399 180.464)"/></g><g><path d="m182 50h20c5.523 0 10-4.477 10-10s-4.477-10-10-10h-20v-20c0-5.523-4.477-10-10-10s-10 4.477-10 10v20h-20c-5.523 0-10 4.477-10 10s4.477 10 10 10h20v20c0 5.523 4.477 10 10 10s10-4.477 10-10z"/><path d="m472 270c-22.056 0-40 17.944-40 40s17.944 40 40 40 40-17.944 40-40-17.944-40-40-40zm0 60c-11.028 0-20-8.972-20-20s8.972-20 20-20 20 8.972 20 20-8.972 20-20 20z"/><path d="m142 150c-22.056 0-40 17.944-40 40s17.944 40 40 40 40-17.944 40-40-17.944-40-40-40zm0 60c-11.028 0-20-8.972-20-20s8.972-20 20-20 20 8.972 20 20-8.972 20-20 20z"/><path d="m2.929 466.641 42.431 42.43c1.875 1.875 4.418 2.929 7.071 2.929s5.196-1.054 7.071-2.929l161.98-161.981c3.905-3.905 3.905-10.237 0-14.143-3.905-3.905-10.238-3.905-14.142 0l-70.06 70.06-28.288-28.288 193.558-193.556 21.582 6.706 6.706 21.582-59.889 59.889c-3.905 3.905-3.906 10.237 0 14.142 3.904 3.904 10.236 3.907 14.142 0l52.453-52.452 11.928 38.388c2.444 7.866 12.879 9.591 17.694 2.836l49.347-69.254h85.487c3.791 0 7.255-2.143 8.948-5.535 1.692-3.392 1.322-7.449-.957-10.478l-51.034-67.829 27.414-80.847c1.223-3.605.292-7.591-2.399-10.283-2.691-2.69-6.677-3.62-10.283-2.399l-80.847 27.414-67.83-51.034c-3.029-2.279-7.087-2.648-10.478-.957-3.391 1.693-5.534 5.157-5.534 8.948v85.487l-69.253 49.349c-3.095 2.206-4.672 5.975-4.071 9.727.602 3.752 3.278 6.84 6.907 7.967l38.387 11.928-278.041 278.041c-1.875 1.875-2.929 4.418-2.929 7.071s1.054 5.196 2.929 7.071zm321.874-357.857c2.633-1.876 4.197-4.911 4.197-8.144v-70.601l56.038 42.162c2.641 1.987 6.092 2.541 9.224 1.479l66.662-22.604-22.604 66.662c-1.062 3.13-.508 6.583 1.479 9.224l42.162 56.038h-70.601c-3.233 0-6.268 1.563-8.144 4.197l-40.632 57.021c-2.543-8.185-18.758-60.366-20.915-67.305-.977-3.144-3.438-5.605-6.582-6.582-49.23-15.299-18.073-5.618-67.305-20.915zm-229.953 280.078 28.288 28.288-70.708 70.708-28.288-28.288z"/><circle cx="246" cy="308" r="10"/></g></g></svg>